<svg t="1725952357490" class="icon" viewBox="0 0 1024 1024" version="1.1" xmlns="http://www.w3.org/2000/svg" p-id="6107" width="32" height="32"><path d="M680.8 442.7l-21.2-20.9c-21.9-1.5-34.6 57.4-34.6 57.4s41.6-43.1 55.8-36.5zM523.2 564.2c-13-12.8-34.2-12.8-47.2 0s-13 33.7 0 46.5c13 12.8 34.2 12.8 47.2 0 13-12.9 13-33.7 0-46.5zM512.4 665.2c56.5 55.6 147.9 55.6 204 0 56.5-55.6 56.5-145.6 0-200.8l-204 200.8z" fill="#FFFFFF" p-id="6108"></path><path d="M755.4 102.9H268.6C165.8 102.9 82 186.7 82 289.6v487.7c0 102.6 83.8 186.4 186.6 186.4h372l-215.7-216c-100.6-100.7-100.6-265.4 0-366s265.1-100.7 365.7 0L942 533.3V290c0-103.3-83.8-187.1-186.6-187.1z" fill="#FFFFFF" p-id="6109"></path><path d="M423.4 377.3c-100.8 101.4-100.8 267.3 0 368.8l216.2 217.6h115c102.7 0 187-84.5 187-188.2V529.6L789.9 376.9c-100.8-101-265.7-101-366.5 0.4z m235.8 44.2l21.2 20.9c-13.8-6.2-56.1 36.2-56.1 36.2s13-58.6 34.9-57.1zM476 610.6c-13-12.8-13-33.7 0-46.5 13-12.8 34.2-12.8 47.2 0s13 33.7 0 46.5c-13 12.9-34.2 12.9-47.2 0z m240.8 54.6c-56.5 55.6-147.9 55.6-204 0l204-200.8c56.5 55.2 56.5 145.1 0 200.8z" fill="#001529" p-id="6110"></path></svg>